<?xml version="1.0" encoding="UTF-8" standalone="no"?>
<!-- Created with Inkscape (http://www.inkscape.org/) -->

<svg
   xmlns:dc="http://purl.org/dc/elements/1.1/"
   xmlns:cc="http://creativecommons.org/ns#"
   xmlns:rdf="http://www.w3.org/1999/02/22-rdf-syntax-ns#"
   xmlns:svg="http://www.w3.org/2000/svg"
   xmlns="http://www.w3.org/2000/svg"
   version="1.2"
   width="850"
   height="430"
   viewBox="0 0 850 430"
   id="worldmap">
  <metadata
     id="metadata20">
    <rdf:RDF>
      <cc:Work
         rdf:about="">
        <dc:format>image/svg+xml</dc:format>
        <dc:type
           rdf:resource="http://purl.org/dc/dcmitype/StillImage" />
        <dc:title></dc:title>
      </cc:Work>
    </rdf:RDF>
  </metadata>
  <defs
     id="defs3">
    <style
       type="text/css"
       id="style5" />
  </defs>
  <g
     transform="matrix(0.81860586,0,0,0.77972891,46.085113,10.571839)"
     id="mapLayer">
    <path
       d="m 716.28125,244.375 -0.125,3.8125 -3.625,2.46875 -1.09375,10.46875 -2.5,4.1875 -0.3125,4.6875 -1.65625,1.09375 6.84375,6.46875 1.65625,3.15625 0.5625,3.9375 1.125,1.46875 2.25,-0.34375 1.78125,-3.03125 0.78125,-1.25 2.6875,5.1875 0.34375,5.875 1.78125,0.34375 1.90625,3.46875 -2.03125,2.84375 2.78125,4.4375 0.3125,0.96875 -0.5,2.125 -1.4375,2.375 1,2.8125 3.34375,2.71875 0.5625,0.78125 2,4.53125 0.4375,5.84375 2.71875,4.1875 6.46875,3.9375 2.46875,0.21875 -0.4375,-4.0625 -2.15625,-5.1875 -3.09375,-6.625 -0.6875,-1.15625 -5.25,-5.0625 -2.96875,-5.4375 0.40625,-12.625 0.78125,-1.21875 1.90625,0.0937 0,2.8125 4.5625,3.1875 0.59375,0.59375 4.09375,4.375 0.5,0.59375 1.1875,1.875 0.21875,2.15625 3.125,0.34375 3.8125,-5.09375 3.5625,-1 1.90625,-5.1875 -0.875,-8.34375 -3.6875,-5.0625 -3.90625,-3.09375 -4.9375,-8.5 3.53125,-5.9375 -5.0625,-5.84375 -4.0625,-0.1875 -3.6875,1.96875 -0.71875,0.40625 -2.40625,1.21875 -1.34375,2.8125 -5.6875,-0.875 -0.78125,-4.65625 -4.21875,-1.65625 -1.71875,-4.28125 2.5625,-5.4375 -3.4375,-4.9375 z m 43.5625,25.78125 -2.40625,0.6875 -1.71875,2.125 1.4375,2.78125 2.09375,0.1875 2.375,-2.125 0.59375,-2.78125 z m 31.53125,2.8125 -2.5625,1.84375 -0.3125,5.78125 4.03125,7.78125 1.34375,1.0625 1.71875,-1.15625 2.96875,0.46875 0.5625,2.625 2.1875,0.1875 1.0625,-1.4375 -1.34375,-1.84375 -1.625,-1.53125 -3.4375,-0.375 -1.84375,-3 2.125,-3.1875 0.1875,-2.78125 -1.4375,-3.5625 z m 1.34375,17.25 0.75,2.6875 1.34375,0.875 0.96875,-1.25 -1.53125,-2.125 z m 12.90625,2.59375 -2.21875,0.46875 1.84375,2.40625 0.84375,2.3125 1.625,0 -0.28125,-3.9375 z m -8.5,2.40625 -0.125,5 1.84375,1.84375 0.65625,3.5625 1.8125,0.375 0.875,-2.21875 -1.4375,-1.0625 -0.375,-6.25 z m 5.15625,1.9375 -0.0937,4.4375 1.03125,1.71875 1.84375,-2.125 -0.5,-3.84375 z m -12.90625,0.375 -0.875,1.625 -0.46875,2.03125 -4.78125,6.0625 0.28125,1.25 2.03125,-0.28125 6.1875,-6.9375 z m 17.59375,4.8125 0.375,2.90625 -3.34375,2.6875 -2.78125,0.28125 -2.96875,3.1875 0.125,1.46875 2.75,-0.875 1.90625,-1.25 1.625,4.125 2.875,2.03125 1.15625,-0.40625 1.0625,-1.25 -2.3125,-2.3125 1.34375,-1.0625 1.53125,1.25 1.0625,-1.71875 -1.0625,-2.125 -0.1875,-4.71875 z M 783.375,312.875 l -3,5.5625 -4.21875,4.96875 -8.40625,6.1875 0.21875,3.5625 -3.84375,-0.25 -1.03125,0 -1.8125,0.5 3.375,13.125 5.09375,0.5625 6.8125,2.5625 0,2.59375 3.09375,-0.59375 4.53125,-6.25 0,-5.125 2.5625,-5.15625 2.8125,0.59375 -3.40625,-7.125 -0.5,-4.59375 0.53125,-0.8125 4.71875,-3.40625 -6.125,-4.46875 z m -60.90625,4.6875 -0.28125,2.28125 L 729,331.25 l 1.96875,0 14.15625,23.6875 5.65625,0.5625 2.84375,-8.28125 -4.53125,-2.84375 -0.875,-4.5625 z m 91.71875,12.9375 -1.875,4.5625 2.96875,3.84375 0.96875,0 1.28125,-2.5625 0.6875,-0.90625 -1.28125,-1.375 -1.875,-0.6875 z m -6.15625,1.0625 -3.84375,2.96875 -2.46875,0 L 798,332.75 l -2.65625,0.125 -2.9375,4.75 -1.875,8.21875 -1,3.28125 2.25,2.75 -1.46875,4.15625 0,0.8125 3.34375,0 1.1875,-10.40625 1.0625,0.28125 1.96875,9.5 1.875,0.5 1.78125,-4.0625 -1.78125,-6.125 -1.46875,-2.65625 4.625,-3.375 -1.09375,-1.5 -4.40625,2.875 -1.1875,0 -2.15625,-3.1875 0.6875,-1.375 3.625,-1.78125 5.5,1.6875 1.6875,-0.0937 4.125,-3.875 z m 23.90625,7.78125 -4.1875,0.46875 -2.65625,1.96875 1.09375,2.21875 4.53125,0.84375 0,0.84375 -2.84375,2.34375 1.375,4.84375 1.375,0.0937 1.21875,-4.78125 2.21875,0 0.9375,4.6875 10.8125,8.9375 0.28125,7 3.71875,4.03125 1.65625,-0.0937 0.375,-24.71875 -6.28125,-4.40625 -5.9375,4.03125 -2.125,1.3125 -3.53125,-2.25 -0.0937,-7.09375 z M 820,345.4375 l -4.03125,0.90625 -1.1875,1.28125 0.96875,1.6875 2.65625,-1 1.6875,-0.96875 2.4375,1.96875 1.09375,-0.90625 -1.96875,-2.375 z m -66.84375,12.875 -2.75,1.875 0.59375,1.59375 8.75,1.96875 4.4375,0.8125 1.875,1.96875 5,0.40625 2.34375,1.96875 2.1875,-0.5 1.96875,-1.78125 -3.65625,-1.6875 -3.125,-2.65625 -8.15625,-1.96875 z m 34.90625,7.625 -2.5625,0.0937 0.375,1.875 2.28125,0.59375 0.875,-1.09375 z m -6.28125,1 -2.15625,1.1875 1.25,1.375 3.15625,-1.1875 z m 10.90625,0 -1,0.78125 -0.59375,1.1875 4.4375,0.6875 3.4375,-1.96875 -1.96875,-0.59375 -3.125,0.875 z m 13.4375,1.46875 -5.09375,4.28125 0.5,1.09375 2.15625,-0.40625 2.53125,-2.375 5.03125,-0.6875 -1,-1.6875 z M 790.90625,371 l -2.75,0.375 2.46875,2.09375 1.96875,0 z"
       id="SEA" />
    <path
       d="m 852.75,348.28125 -0.375,24.4375 3.53125,-0.1875 4.625,-5.40625 3.90625,0.1875 2.5,2.25 0.8125,6.90625 7.96875,4.1875 2.03125,-0.75 0,-2.53125 -6.375,-5.3125 -3.15625,-7.28125 2.5,-1.1875 -1.84375,-4.03125 -3.71875,-0.0937 -0.90625,-4.28125 -9.8125,-6.625 z M 880.46875,349 l -0.875,1.25 4.8125,4.25 0.65625,2.5 1.3125,-0.125 0.15625,-2.59375 -1.46875,-1.3125 z m 2.40625,6.03125 -0.9375,0.21875 -0.5625,2.5625 -1.84375,1.1875 -5.46875,0.96875 0.21875,2.0625 5.78125,-0.3125 3.625,-2.28125 -0.21875,-3.96875 z m 7.90625,4.1875 -1.40625,0.28125 1.25,3.46875 2.1875,2.125 0.65625,-0.59375 -0.21875,-2.28125 z m 4.65625,5.4375 0.15625,2.28125 1.375,1.3125 1.3125,-0.8125 L 897.125,365 z m 4.59375,4.34375 1.03125,2.5 1.96875,2.34375 1.09375,-1.75 -1.46875,-2.5 z m -2.84375,1.3125 -1.1875,1.25 1.25,2.28125 1.46875,0.4375 -0.0937,-1.53125 z m 7.9375,2.4375 0.59375,3.09375 1.40625,1.90625 1.15625,-2.4375 z m 1.625,6.90625 -0.53125,0.875 1.6875,2.21875 1.1875,0.0625 -0.75,-2.875 z m -78.5,1.46875 -10.3125,2.84375 -2.8125,8.21875 -4.625,1.09375 -0.34375,-5.71875 -18.8125,11.4375 0.34375,4.28125 -2.8125,3.9375 -7.125,0 -15.25,6.40625 -5.34375,14.34375 -0.34375,25.40625 -3.90625,2.84375 -0.34375,2.5 5.3125,3.5625 13.15625,-2.5 6.71875,0 2.5,-3.5625 14.875,-2.875 10.65625,3.21875 -0.71875,4.3125 1.4375,4.28125 8.15625,-1.4375 0.34375,2.15625 -5.3125,3.90625 1.75,1.4375 3.90625,-1.4375 -1.0625,11.8125 7.46875,5.71875 4.25,-1.4375 2.125,2.15625 12.4375,-1.8125 11.6875,-18.9375 4.28125,-1.0625 8.5,-15.75 2.125,-13.5625 -5.3125,-6.78125 2.125,-1.4375 -4.25,-13.25 -4.625,-3.21875 0.71875,-17.84375 -4.25,-3.25 -1.0625,-10 -2.125,0 -7.125,23.59375 -3.875,0.375 -8.875,-8.96875 4.96875,-13.21875 z m 74.78125,2.9375 -1.75,0.8125 1.53125,2.125 1.3125,-0.75 z m 17.84375,13.15625 -1.25,1.65625 0.53125,1.875 0.625,0.40625 1.125,-1.4375 z m 2.0625,4.875 -1.4375,0.21875 0.0937,1.34375 1.34375,0.4375 0.9375,-0.53125 z m 25.6875,10.1875 -1.25,1.65625 -0.0937,1.875 1.4375,1.46875 z m -25.1875,2.09375 -0.59375,0.9375 0.90625,1.03125 1.5625,-0.5 z m -16.8125,6.09375 -0.34375,1.78125 4.625,6.4375 2.46875,1.0625 0.34375,-2.5 z m 6.40625,61.5 1.0625,11.78125 -1.4375,5.375 -5.3125,3.9375 0.34375,4.625 0,5 1.4375,1.8125 14.53125,-12.53125 0,-2.84375 -3.53125,0 -5,-16.8125 z M 825.75,496.25 l -1.78125,7.15625 0.34375,5 5.3125,-0.34375 6.03125,-9.3125 z m 76.625,11.4375 -13.84375,12.53125 -14.90625,6.40625 0.71875,2.875 8.15625,3.9375 8.875,-8.21875 5.3125,-0.71875 0.71875,-3.9375 7.8125,-7.5 z"
       id="OCE" />
    <path
       d="m 145.0625,225.03125 -7.5625,0.40625 4.8125,15.1875 -2.25,1.28125 0.25,3 4.25,3.28125 0,6.0625 5.25,5.03125 -2.25,-14.875 -3,-9.8125 0.75,-6.8125 2.5,0.25 1,2.28125 -1,5.78125 13,25.4375 0,9.09375 10.5,12.3125 11.5,5.3125 4.75,-2.78125 5.65625,4.625 6.71875,7.1875 6.4375,3.59375 1.09375,0.90625 1.75,3.71875 0.5,0.0937 9.6875,11.3125 0.1875,-0.40625 5.9375,1.25 7.40625,-2.65625 -1.65625,13.90625 -2.15625,5.15625 -6.3125,11.875 0.6875,1.8125 -2.375,4.71875 10.4375,21.4375 13.375,16.96875 11.5625,7.5 0.5625,18.28125 2.5,56.71875 1.1875,0.3125 -0.15625,0.25 3.71875,7.90625 -0.375,6 -0.0937,8.59375 1.65625,11.84375 13.46875,13.84375 3.59375,3.46875 5.84375,0.53125 6.28125,-0.4375 -0.84375,-6.90625 -4.4375,-2.1875 -3.15625,-4.59375 0.84375,-0.34375 -1.625,-1.46875 1.15625,-7.4375 0.96875,-12.65625 1.28125,-16.21875 7.53125,-8.96875 9.40625,-12.71875 -2.84375,-3.03125 8.28125,-4.3125 4.28125,-4.34375 1.4375,-2.59375 5.6875,-19.125 14.3125,-7.65625 9.0625,-10.5625 -0.71875,-20.8125 L 357.25,367.15625 353.875,352.5625 316.8125,338.90625 312.96875,326.625 309,324 l -5.875,-4.15625 -0.15625,-0.6875 -9.34375,0.25 -7.96875,-7.4375 -1.40625,-0.34375 -0.8125,-0.53125 0.4375,-0.75 -2.96875,-7.03125 -2.875,1.65625 -5.0625,-0.34375 -14.5625,-6.375 -1.53125,1.59375 -4.375,4.4375 2.125,-2.34375 0.40625,-4.28125 -1.0625,0 -3.59375,0.375 -12.53125,10.46875 -2.8125,-0.78125 -5.34375,-1.59375 -8.4375,1.65625 -1.75,-3.125 1.8125,-5.34375 0.90625,-4.75 -5.5,-8.125 -8.28125,0.5 -0.65625,-1.09375 1.65625,-7.4375 4.125,-7.28125 -2.5,-2.28125 -9.75,2.28125 -2.25,6.53125 -5.75,1 -6.75,-2.75 -3,-9.5625 L 185.84375,254.25 181.1875,251.375 179,239.78125 177.125,239 l -3.375,3.40625 -3.875,-2.0625 -1.5,-7.71875 L 153,231 z m 82.9375,37.5625 -1.125,0.125 -5.0625,7.5 14.46875,3.4375 0.28125,4 1.90625,6.96875 3.84375,-5.40625 4.25,-1.65625 -0.96875,2.15625 0,0.0312 -0.0312,3.21875 0.0937,0.34375 2.8125,1.625 4.3125,-0.6875 0.46875,0.0937 1.59375,2.0625 0.15625,1 0.3125,-0.9375 2.25,-2.09375 0.25,-0.0625 4.46875,-0.0625 2.625,-1.25 7.75,2.5625 -5.3125,-7.09375 -2.59375,1.3125 -0.0937,-0.125 -5.46875,-4.125 -3.75,-1.6875 -4.09375,-0.5 -0.65625,0 -0.5625,-0.0625 -0.34375,0.34375 -0.0312,0.0312 -7.25,-4.78125 z"
       id="LAM" />
    <path
       d="m 491.90625,46.71875 -1.65625,0.125 -2.9375,2.71875 1.78125,2.71875 3.15625,0 1.3125,1.78125 3.875,2.03125 4.5,-2.625 L 505,50.875 l -1.0625,-2.15625 -3.0625,-1.78125 -2.25,2.03125 -1.53125,-1.90625 -1.1875,0.125 -1.53125,3.34375 -2.21875,-2.28125 z m -5.28125,5.59375 -3.6875,1.78125 -6.71875,0 -1.0625,3.90625 3.78125,3.34375 1.65625,-0.25 2.34375,-4.03125 2,1.40625 -1.40625,2.875 -0.71875,4.15625 1.65625,2.59375 3.53125,-5.9375 4.625,-5.59375 -1.78125,-1.53125 -2.59375,-1.0625 z m 10.34375,6.75 -2.34375,2.15625 -2,1.53125 0.9375,1.65625 1.875,0.59375 3.09375,-1.4375 1.40625,-1.78125 -1.3125,-2.125 z m 15.5625,34.78125 -7.15625,0.71875 -0.71875,3.15625 -1.65625,-0.5625 -1.09375,-1.84375 -3.5,0.1875 -0.375,3.5 -1.65625,0.75 -0.90625,-1.875 -7.34375,5.9375 1.46875,1.65625 -2.75,1.28125 -6.21875,12.375 -2.21875,1.5 0.1875,1.09375 2.1875,1.125 -0.53125,2.375 -3.6875,-0.1875 -1.09375,-1.28125 -2.375,2.78125 -1.46875,1.09375 -0.375,2.59375 -1.28125,0.75 -3.3125,0.71875 -1.625,5.1875 1.09375,8.5 1.28125,3.875 1.46875,1.5 3.28125,-0.1875 4.78125,-4.625 1.84375,-3.125 0.53125,4.59375 0.1875,1.28125 4.59375,7.03125 1.09375,5.5625 2,0 1.46875,-3.15625 4.21875,-1.46875 -0.15625,-7.96875 2.75,-2.375 1.8125,-2.78125 0.375,-2.03125 -4.78125,-3.5 -0.15625,-4.4375 2.75,-4.625 2,-0.1875 3.5,-4.8125 0,-3.5 4.9375,-3.53125 0.875,0.0312 2.09375,0.90625 1.25,2.40625 -1.25,1.65625 -6.4375,7.03125 -1.09375,3.6875 1.46875,5.375 4.9375,3.6875 6.625,-3.125 5.3125,-0.75 4.9375,-7.9375 -3.65625,-8.71875 -3.5,-8.3125 0.5625,-5.34375 -2.21875,-0.375 -0.5625,-3.90625 0.21875,-1.09375 2,-1.46875 L 517.3125,99 l -1.28125,-0.75 0.15625,-2.03125 1.125,0 0,-1.09375 z m -108.125,22.34375 -2.65625,1.6875 -2.25,2.09375 0.0625,1.15625 2.9375,0.375 -0.1875,2.125 -1.03125,1.03125 0.25,0.6875 2.9375,0.1875 0,3.40625 4.21875,0.71875 2.5,1.4375 2.84375,0.125 4.84375,-2.40625 3.71875,-4.9375 0.0625,-3.34375 -2.28125,-1.9375 L 418.5,117 l -0.875,0.625 -1.28125,1.65625 -1.46875,-0.1875 -1.46875,-1.625 -1.90625,0.1875 -2.75,2.28125 -1.65625,1.8125 -0.9375,-0.8125 -0.0625,-1.96875 0.9375,-0.625 -0.65625,-1.03125 z m 107.75,27.28125 -3.53125,2.15625 -0.0625,1.625 2.46875,2.5625 0.34375,4.28125 -0.0625,0.3125 -2.65625,0.25 -2.9375,2.8125 -2.5,0 0.15625,3.53125 -2.09375,2.09375 -2.125,-0.59375 -3.75,0.21875 -2.6875,1.5625 -3.59375,3.125 -0.8125,0.3125 0,-0.25 -2.125,-1.84375 -2.40625,-0.65625 -2.71875,1.15625 -1.71875,-0.1875 -1.84375,-2.09375 -0.5625,-4.4375 L 479,157.125 478.9375,155.34375 477.5,151.625 l -0.71875,-0.125 -4.15625,4.59375 -0.15625,3 1.9375,4.25 0.25,1.5 0.0625,2.46875 -3.59375,0.5625 -1.03125,0.40625 -4.53125,2.21875 0.96875,0.875 0.0937,2.21875 -0.96875,-0.1875 -1.0625,-1.65625 -2.53125,4.03125 -1.65625,2.90625 -2.21875,0.5625 -4.40625,4.8125 -1.34375,0.0625 -1.78125,-1.25 -1.125,0.28125 -0.90625,2.75 -6.4375,0.1875 0.1875,1.4375 4.40625,2.9375 5.125,4.09375 -0.0937,4.90625 -2.71875,4.8125 L 448.375,205 l -12.75,0 -2.5625,-1.15625 -1.25,0.0937 -1.5,3.125 0.53125,2.78125 0,0.40625 0.0937,1 -0.625,8.625 -1.78125,1.625 0.1875,0.96875 1.25,2.0625 -0.8125,2.5 1.34375,0.4375 3.09375,-0.34375 0.71875,-0.28125 3.4375,1.875 3.96875,0.28125 7.96875,-1.96875 3.90625,-4.90625 0.0625,-5 6.90625,-6.21875 0.34375,-2.78125 0.125,-0.8125 1.84375,-2.15625 3.8125,0.0937 1.0625,1 3.8125,-0.28125 6.40625,-3.0625 8.3125,9.65625 5.15625,1.5 3.0625,2.875 0.75,6.59375 1.625,-0.9375 1.4375,-3.59375 -0.375,-2.59375 2.4375,-0.21875 0.34375,-1.46875 -6.84375,-3.28125 -6.5,-6.375 -2.59375,-3.8125 -0.625,-3.625 3.3125,-0.8125 1.03125,1.25 -0.40625,2.53125 1.625,0.4375 0.8125,-1.21875 1.3125,1.125 1.03125,3.59375 7.0625,3.3125 0.6875,-0.8125 0.78125,0.4375 0.40625,1.28125 1.75,0.3125 0.125,-0.15625 0.34375,1.03125 0,4.4375 1.3125,2.5 0.9375,-0.125 0.4375,0.84375 -0.125,1.34375 4.625,2.3125 2.21875,0.875 -1.15625,1.21875 -2.59375,0.25 -0.34375,1.15625 0.875,2.03125 2.90625,1.53125 1.25,0.0937 0.15625,-3.4375 1.875,-2.28125 -5.15625,-6.09375 0.6875,-2.0625 1.21875,-0.0625 1.84375,1.46875 1.15625,-0.5625 0.375,-2.0625 5.4375,-0.125 1.21875,-0.15625 2.78125,-0.71875 1.40625,-0.96875 -0.40625,-1.53125 -1.46875,-1.1875 -0.28125,-0.75 -0.6875,-3.1875 0.625,-1.71875 0.65625,-0.5625 3.25,-3.6875 -0.625,-1.875 L 525.125,196 l -2.25,-0.125 0.0937,-2.65625 -3,-5.21875 0.0937,-0.8125 2.28125,-1.84375 2.40625,0.78125 3.46875,4.65625 -2.53125,4.5625 3,0.875 3.96875,-4.5625 2.25,0.40625 2.09375,1.46875 -1.84375,2.4375 2.5,3.90625 2.65625,0 1.375,-2.59375 2.8125,-0.59375 0.0937,-2.09375 -5.25,-0.8125 0.1564,-2.28125 5.09375,0 5.46875,-4.375 2.4375,-2.125 0.375,-6.65625 -10.78125,-0.96875 -4.4375,-6.25 -3.0625,-1.03125 -3.71875,0.15625 -0.15625,-1.4375 1.1875,-1.8125 0,-1.1875 -4.28125,-6.0625 -3.8125,-1.5 -3.09375,-0.375 -0.40625,-0.65625 -0.15625,-2.9375 -2.09375,-2.90625 -0.0312,-0.75 -0.25,-6.96875 z m -67.34375,4.34375 -4.03125,2.9375 -2.1875,7.40625 2.1875,-0.1875 -0.1875,4.25 1.09375,1.28125 3.6875,0.1875 0.53125,5.71875 -3.09375,0.375 -0.375,2.96875 -2.375,3.5 3.84375,0.375 0.90625,0.5625 -7.34375,4.25 2.59375,1.28125 7.6875,-3.5 4.96875,0.53125 2.5625,-1.09375 1.09375,-1.5 -1.28125,-0.71875 0.1875,-0.9375 1.84375,-1.09375 0.15625,-2.03125 -1.28125,-2.21875 -2.90625,-1.125 -1.84375,-4.25 -2.375,-4.625 -0.75,-3.875 1.125,-1.46875 0,-1.84375 -4.21875,0 -0.75,-1.125 1.84375,-2.75 z m -6.40625,13.65625 -3.125,0.40625 -0.9375,-0.28125 -1.59375,3.75 -3.5,-0.1875 -0.1875,3.15625 1.09375,2.21875 -4.03125,2.59375 0,1.09375 1.84375,1.28125 2.5625,0 8.0625,-2.9375 0.90625,-6 0.0937,-1.0625 0.84375,-1.4375 z m 39.4375,45.5 -1.96875,1.9375 -0.1875,1.78125 1.59375,1 0.625,-0.0937 L 478.25,209 z m -0.28125,6.40625 -2.65625,1.34375 0.34375,5.15625 2.125,0.375 1.59375,-1.53125 0,-4.875 z M 491,222.25 l -4.96875,0.78125 0.1875,1.34375 4.4375,2.21875 0.6875,0.75 1.15625,0.15625 -0.0625,-4.46875 z m 52.21875,7.59375 -2.8125,1.53125 -2.78125,0.1875 -0.15625,1.78125 1.34375,0.9375 1.8125,0.0625 3.8125,-3.625 z m -26.46875,0.75 -0.625,1.03125 0.90625,0.5 0.84375,1.125 4.625,-0.15625 1.0625,-1.375 -0.53125,-0.65625 -1.59375,0.59375 -2.375,0 -0.6875,-1.03125 z"
       id="EUR" />
    <path
       d="m 538.5625,208.25 -5.53125,3.875 -5.15625,0.25 -0.46875,2.96875 -5.84375,0 -2.34375,2.125 0,1.15625 1.40625,1.1875 0,1.3125 -0.59375,1.53125 0.59375,1.3125 1.875,-0.9375 1.875,2 -0.46875,1.40625 -0.6875,0.96875 1.03125,1.1875 5.15625,1.03125 3.65625,-1.53125 0,-2.21875 1.75,0.34375 4.21875,2.46875 4.5625,-0.71875 2,-1.875 1.28125,0.46875 0,2.125 -0.5625,2.96875 -0.125,0.78125 0.0625,1.9375 -0.9375,3.6875 -1.5625,5.03125 -0.5,0.375 -0.59375,0.0625 -3.28125,0 -2.625,-1.4375 -1.40625,0 -3.0625,2.53125 -2.46875,-0.0625 -5.21875,-1.4375 -2.65625,-0.0625 -0.84375,-0.125 -4.53125,-0.65625 -2.15625,-2.875 -5.65625,0 -2.875,2.40625 -0.1875,1.1875 1.75,1.6875 0.40625,1.71875 -4.03125,1.6875 -7.75,-3.53125 -2.15625,-3.34375 -7.875,-2.28125 -0.71875,-0.125 -3.6875,-1.3125 -0.15625,-1.0625 1,-1.625 0,-3.5625 -0.84375,-0.4375 -0.15625,-1.96875 0.875,-1.125 -0.0937,-1.4375 -1.8125,-1.1875 -5.53125,2.25 -1.03125,0.15625 -4.0625,-1.375 -17,3.1875 -3.6875,2.8125 -0.84375,0.15625 -11.53125,0 -2.28125,5.03125 -5.1875,2.5 -4.3125,11.625 -8.375,5.03125 -11.78125,19.40625 11.5625,-0.25 0.4375,-5.6875 2.9375,0 0,-7.78125 10.1875,0 0.1875,-4.53125 0.8125,0.0312 31.84375,24.34375 5.4375,0.46875 18.09375,-14.15625 0.96875,-0.0937 8.40625,2.125 2.1875,-1.25 20.4375,10.59375 3.375,0.15625 L 521.5,273 l 26.46875,0.28125 2.71875,-3.15625 -0.1875,-4.96875 -9.375,-11.59375 -1.1875,-3.75 0.15625,-2.15625 1.75,0.125 1.9375,6.375 1.6875,0.84375 1,-0.71875 0.53125,0.0312 13.8125,16.71875 0,4.53125 1.375,2.09375 3.8125,1.75 5.53125,9.03125 0.46875,0.78125 1.4375,4.28125 0,4.1875 3.4375,3.15625 24.40625,-9.9375 0.21875,-2.75 0.625,-0.40625 5.03125,-0.15625 10.875,-16.03125 0,-2.625 -8.96875,-4.6875 -1.53125,-2.375 -0.1875,-0.75 0.5,-2.625 -3.09375,0.875 -3.46875,5.21875 L 594,264.9375 593.28125,264.8125 591,263 l -7,-9.75 -0.71875,-1.1875 0,-4.90625 0.5,-0.53125 0.375,-0.34375 0.5625,-0.375 3.15625,0.25 2.46875,1.75 0.125,3.5625 9.71875,5.65625 3.625,0 2.25,-1.875 2.8125,-0.125 1.625,3.78125 10.5,1.46875 0.3125,-3.875 3.5,-1.25 0.15625,-1.375 -2.78125,-3.78125 0.3125,-0.84375 10.28125,-3.6875 0.8125,-4.375 6.46875,-4.0625 2.46875,-9.34375 1.84375,-2 -1.90625,-3.34375 6.25,-3.84375 -0.78125,-1.125 -2.90625,0.15625 -0.25,2.6875 -3.875,-0.0625 -0.0625,-3.53125 -1.25,-1.5 -2.125,1.90625 0.0625,1.75 -3.15625,1.21875 -5.84375,-0.375 -7.625,7.9375 -6.78125,-0.59375 -0.875,-0.53125 -0.1875,-3.15625 -11.03125,-4.1875 -4.875,1.09375 -2.71875,3.34375 -2.4375,-0.15625 -0.6875,0.59375 -5.40625,-0.34375 -6.78125,-4.96875 -2.53125,-2.78125 -1.15625,0.28125 -2.09375,2.40625 -3.6875,-0.71875 -0.71875,-0.46875 -4.25,-3.4375 0.21875,-2.9375 -2.3125,0 -3.90625,-1.90625 -2.21875,2.375 -8.1875,-0.25 -4.9375,-2.9375 z m 55.8125,49.90625 -1.75,0.875 -0.5,4 1.53125,1.15625 1.40625,-0.125 0.5,-5.03125 z"
       id="ORT" />
    <path
       d="m 430.90625,258.875 0.0312,4.03125 -10.34375,0.0312 -0.0312,7.75 -2.96875,-0.0312 -0.40625,5.71875 -12.28125,0.28125 2.1875,2.84375 -0.46875,12.34375 -0.4375,1.34375 -0.90625,1.59375 L 405,296.375 l 1.4375,1.03125 0.4375,0.9375 -0.125,1.09375 0.0312,0.78125 1.25,3 0.5625,1.3125 1.40625,2.78125 0.40625,0.625 3.0625,4.6875 0.46875,0.5 5.65625,5.46875 0.5625,0.59375 11,7.34375 0.90625,0.21875 4.28125,-3.03125 5.3125,-0.9375 5.4375,1.1875 1.28125,0.28125 1.625,-0.0625 4.40625,-2.5 0.8125,-0.4375 2.6875,-1.5625 0.8125,-0.1875 2.125,0 0.71875,-0.125 3.9375,0.1875 4.71875,5.28125 2.3125,0.625 1.78125,-0.875 2.75,-0.40625 0.75,0.0937 3.21875,2.96875 -0.21875,4.5625 0.1875,0.875 -0.0625,1.40625 -0.3125,0.90625 -3.4375,6.65625 8.09375,8.875 0.25,0.875 0.59375,1.21875 0.4375,0.59375 1.71875,2.28125 0.34375,1.21875 3.40625,12.71875 -0.0937,4.03125 -4.96875,5.34375 -0.75,8.71875 -0.125,0.84375 0.46875,5.3125 6.21875,9.15625 -1.0625,4.71875 0.0625,2.46875 4.78125,11.9375 0.375,0.96875 2.46875,7.09375 4.40625,4.15625 -3.15625,3.6875 2.0625,4.59375 4.71875,1.8125 3.75,-3.21875 10.78125,0.0625 0.75,-0.96875 4.78125,-0.8125 16.1875,-16.125 -0.0625,-5.0625 -0.125,-1.875 0.375,-0.78125 6.3125,-3.84375 1.03125,-5.75 0,-9.4375 10.15625,-8.34375 1.75,0.0625 6.15625,-5.90625 -0.9375,-12.15625 -0.3125,-0.84375 -3.90625,-7.59375 -0.21875,-7.28125 1.25,-3.5 0.65625,-0.625 4.9375,-7.75 1.125,-0.5 21.8125,-23.375 4.03125,-11.46875 0.15625,-3.875 -1.53125,-0.9375 -4.375,1.6875 -0.8125,0.21875 -10.125,3.46875 -1.21875,0.0625 -4.0625,-2.78125 -0.875,-0.1875 0.0625,-4.9375 -1.46875,-0.9062 -0.65625,-0.5 -9.375,-6.96875 L 561.5,285 l -1.09375,-0.8125 -0.4375,-0.84375 L 552,270.625 l -3.6875,3.71875 -25.8125,-0.25 0.28125,6.5625 -2.4375,-0.0625 -0.0937,0.53125 -0.875,-0.0312 -21.40625,-11.15625 -2.1875,1.15625 -0.90625,-0.1875 -7.96875,-1.9375 -18.40625,14.375 -2.625,-0.25 -0.84375,-0.0312 -2.9375,-0.40625 -21.875,-16.6875 -1.125,-0.84375 z m 162.625,113.75 -1.21875,0.28125 -2.15625,5.0625 -3.625,6.4375 -6.40625,0.46875 -2.75,3.21875 0.46875,9.8125 -3.96875,4.625 0.46875,7.8125 3.34375,3.8125 3.96875,-0.4375 3.96875,-2.9375 -0.90625,-4.59375 9.125,-15.8125 -1.84375,-1.96875 1.84375,-3.84375 1.96875,0.625 0.625,-1.53125 -1.84375,-7.8125 z"
       id="SSA" />
    <path
       d="m 299.28125,16.875 -0.6875,4.25 -4.21875,-3.78125 -4.875,1.5625 0.90625,2.46875 7.3125,1.53125 -0.4375,3.59375 4,2.4375 9.75,-2.4375 0.21875,3.34375 -7.96875,3.78125 -4.90625,-3.78125 -4.40625,0.4375 4.40625,6.28125 -2.21875,1.09375 -3.3125,-2.875 -2.4375,1.5625 2.21875,4.21875 3.75,0 -0.875,4.03125 -3.09375,-0.46875 -4,-4.25 -2.625,0.5 0,2 -4.90625,1.125 1.34375,2.21875 5.53125,2.21875 6.21875,0.6875 4.4375,3.125 4.4375,-2.46875 -3.125,-3.125 4,0 2.4375,-2.6875 6,-0.875 0,-1.34375 -3.34375,-2.21875 0.4375,-2.46875 9.3125,1.5625 13.75,-5.375 -5.09375,-1.5625 1.34375,-1.78125 10.625,0 1.78125,-1.78125 -21.53125,-7.59375 -5.09375,-1.8125 -5.53125,4.03125 -6.21875,-5.125 z m -17.0625,0.46875 -3.09375,2 0.21875,2.6875 -3.5625,-1.34375 -1.53125,2.03125 0.21875,3.5625 5.96875,0 1.5625,1.34375 -0.21875,1.5625 -5.3125,0.65625 3.75,5.15625 5.125,0.875 7.0625,-3.125 z m -40.59375,2.25 -3.09375,1.09375 0.21875,1.5625 6.875,-0.4375 -0.21875,-1.5625 z m -16.84375,1.5625 -2.65625,2.6875 -7.96875,0.21875 -1.78125,3.125 8.65625,3.125 3.09375,-4.6875 1.34375,3.125 2.21875,0 4.1875,-4.6875 -5.09375,-1.34375 z m 35.9375,1.96875 -4.21875,0.25 -0.4375,1.5625 -1.125,1.5625 0,2.21875 4.21875,-0.65625 4.4375,3.8125 1.53125,0 0,-3.8125 z m -22.40625,0.25 -0.65625,2.25 4.21875,2 3.09375,-1.78125 L 244.75,24.5 z m -108.4375,2.84375 -30.84375,5.96875 -1.25,9.4375 6.65625,4 -2.46875,6.46875 -8.84375,-7.21875 -8.40625,2 1.71875,9.46875 9.15625,2.46875 0.46875,2 L 82.5,65.03125 74.84375,77.71875 77.5625,91.15625 82,94.125 l 3.46875,-3.21875 0.96875,1.96875 -4.1875,5 -16.28125,7.4375 -10.375,2.5 -0.25,3.71875 23.9375,-6.9375 9.875,-2.75 9.125,-11.1875 10.125,-6.71875 -5.1875,8.6875 5.6875,0.75 9.625,-4.21875 1.71875,6.96875 6.65625,1.5 6.9375,6.6875 0.46875,4.96875 -0.96875,1.25 1.21875,4.71875 1.71875,0 0.25,-7.96875 1.96875,0 0.4375,17.78125 0.375,9.84375 2.875,15.21875 3.34375,3.53125 -1.8125,-1.15625 -4.28125,-4.5625 -1.53125,0.625 2.8125,3.25 0.6875,3.84375 2.8125,3 2.375,-0.40625 0,-2.03125 1.90625,3.15625 -0.75,3 -3.46875,-2.28125 -1.75,0 -1,4.28125 -12.21875,27.34375 3.25,23.84375 4,2.03125 0.75,6.53125 8.21875,0 7.96875,6 15.6875,1.5 1.71875,8.03125 2.5,1.78125 3.5,-3.53125 2.71875,1.25 2.5,11.5625 4.25,2.75 3.46875,-6.53125 10.71875,-7.78125 6.96875,3.25 5.96875,0.5 0.25,-3.75 12.46875,0.25 2.46875,2.75 0.5,6.28125 -1.46875,3.5 1.71875,6.03125 3.75,0 3.75,-5.78125 -1.5,-2.75 -1.5,-6.03125 2.25,-6.78125 10.21875,-8.75 7.71875,-2.28125 -1,-7.28125 10.71875,-11.53125 10.6875,-1.78125 -1.71875,-6 9.65625,-5.59375 1.15625,2.71875 9.75,1.03125 11.0625,-8.875 -9.75,-0.15625 0.125,-12.96875 14.34375,-1.28125 12.375,-8.09375 -10.15625,-21 L 306.6875,132 297.84375,132.28125 287.875,120.25 l -12.28125,5.90625 -5,17.59375 -9.4375,10.46875 -2.1875,2.53125 L 253,144.15625 239.46875,129.9375 l 3.21875,-12.40625 16.4375,-8.40625 2.65625,-1.90625 -0.25,5.8125 3.6875,-2.125 4.5,0 3.15625,2.9375 2.90625,-2.40625 -8.375,-8.21875 2.96875,-2.125 11.5625,-5.03125 -2.875,-14.46875 -1.625,-2 2.125,0.09375 9.09375,4.46875 6.4375,7.375 4.875,-0.21875 -1.34375,6.90625 -4.4375,7.375 -4.875,2.21875 -3.53125,-0.65625 -1.78125,-1.5625 -2.65625,3.5625 1.09375,3.5625 3.78125,0.21875 4.65625,-2.21875 4,10.28125 9.96875,6.46875 6.875,-8.6875 -5.75,-9.40625 3.3125,-3.78125 4.65625,7.8125 8.4375,-7.375 -1.5625,-3.34375 -5.75,1.78125 -4,-10.9375 3.78125,-6.25 -7.53125,-8.03125 -4.21875,2.875 -4,-8.6875 -8.40625,1.125 -2.21875,-10.5 -6.875,4.6875 -0.6875,5.8125 -3.75,0 0.4375,-5.15625 5.28125,-7.8125 L 278,61.125 l -5.75,2.25 -3.125,4.25 0.90625,11.59375 5.375,0.25 -5.21875,8.25 -6.21875,-5.28125 -4.75,-17.40625 -10.65625,9.03125 -7.90625,9.84375 -13.03125,-9.1875 -13.125,2.375 -6.46875,-8.625 -17.25,-12.84375 -8.125,-3 -15.78125,0.65625 -9.25,-7.5 z m 141.25,1.1875 -3.3125,0.4375 1.78125,2.03125 -1.5625,2.65625 1.09375,2.90625 4.90625,-2.6875 0,-2 z m 110.65625,0.65625 -5.1875,1.09375 -1.09375,2.71875 5.4375,1.90625 -5.6875,4.0625 -4.09375,-4.625 -5.71875,-1.625 -0.8125,4.34375 -5.71875,0 -2.15625,-4.59375 -8.96875,-1.375 -4.90625,2.4375 -0.25,3.28125 -6.25,-0.8125 -3.8125,1.625 0.25,3.8125 0,1.875 -7.0625,1.375 -3.25,-2.1875 -2.1875,3.53125 3.25,3.5625 6.8125,-0.84375 0.53125,2.1875 -5.15625,2.46875 -4.625,-2.21875 -1.34375,2.1875 2.4375,2.4375 -1.09375,2.4375 3.53125,4.625 4.375,-1.34375 5.6875,-0.53125 6.53125,7.0625 4.375,11.6875 -3.53125,7.34375 4.875,-0.84375 2.71875,1.65625 0.28125,3.53125 -6,0.28125 3.28125,3.25 4.0625,0.8125 -8.96875,11.96875 -1.09375,7.34375 1.90625,5.96875 -1.34375,3.53125 2.4375,7.625 4.625,5.15625 1.34375,-0.25 3,-0.84375 0.28125,4.375 1.875,2.71875 3.53125,-0.28125 2.71875,-10.0625 8.1875,-10.0625 12.21875,-4.875 7.625,-9.53125 3.53125,1.625 7.34375,0 5.96875,-5.96875 7.34375,-3 0.8125,-4.625 -4.625,-4.0625 -4.0625,-1.375 -2.1875,-5.6875 5.15625,-3 8.1875,4.34375 2.71875,-3 -4.375,-2.4375 9.25,-12.5 -1.625,-5.4375 -4.34375,-0.28125 1.625,-4.90625 5.4375,-2.4375 11.15625,-9.78125 -3.25,-3.53125 -12.53125,1.09375 -6.53125,6.53125 3.8125,-8.4375 -4.34375,-1.09375 -2.4375,4.34375 -3.53125,-2.96875 -9.78125,1.0625 2.71875,-4.34375 16.03125,-0.53125 -4.09375,-5.4375 -17.40625,-3.25 -7.0625,1.0625 0.28125,3.5625 L 381.5,30.5 z m -152.5625,2.25 -6.84375,2.90625 0,2.21875 8.84375,3.34375 -2,2.25 1.34375,2.875 5.53125,-2.4375 4.65625,0 2.21875,3.5625 3.78125,-3.8125 -0.875,-3.5625 -3.125,1.125 -0.4375,-4.46875 1.5625,-2.6875 -1.5625,0 -2.4375,1.5625 -1.09375,0.875 0.65625,3.125 -1.78125,1.34375 L 235,38.3125 l -0.65625,-4 z m -20.40625,5.125 -5.09375,0.4375 0.21875,4.03125 -7.96875,8.28125 2,6.6875 5.75,-1.5625 3.34375,-4.90625 8.40625,-3.125 6.875,-0.46875 -5.3125,-5.8125 -2.65625,2.03125 -2,-0.6875 -1.125,-2.46875 z m 60.09375,2.90625 -2.65625,0.90625 0.4375,3.5625 4.4375,2.90625 0.21875,2.21875 -1.3125,1.34375 0.65625,4.46875 17.0625,5.59375 4.65625,1.53125 4.6875,-4 -5.5625,-4.46875 -5.09375,1.34375 -7.09375,-0.6875 -2.65625,-2.6875 -0.65625,-7.34375 -4.4375,-2.25 z m -8.40625,1.5625 -4.875,0.6875 -2.90625,2.65625 5.34375,0.21875 L 256.5,47.5 l 1.125,1.78125 1.53125,-0.21875 3.78125,-6.03125 z m -37.90625,8.0625 -8.4375,2.21875 -4.875,4.25 0.4375,4.6875 8.875,2.6875 -2,4.46875 -6.4375,-4.03125 -1.78125,3.375 4.21875,2.875 -0.21875,4.6875 6.4375,1.8125 7.75,-0.46875 1.34375,-2.4375 5.75,6.46875 4,-1.34375 0.65625,-4.46875 2.875,2 0.4375,-4.46875 L 238.09375,68.0625 238.3125,54 235.21875,51.53125 231.875,56 z m 40.78125,0.4375 -1.125,2.21875 4.875,1.78125 1.34375,-2 z M 251.1875,54 l -1.5625,3.78125 -2.875,-1.34375 -1.5625,2.03125 3.125,4.90625 0.21875,4.6875 6.625,-4 0,-5.8125 L 257.625,55.78125 255.15625,54 z m 12.625,1.78125 -4.65625,3.8125 1.125,4.6875 2.875,0 1.3125,-2.46875 2,2 2,-0.21875 5.34375,-4.46875 z m 29.0625,9.84375 -1.78125,1.78125 1.53125,2.46875 7.34375,0.875 -4.65625,-4.90625 z m 118,20.0625 -1.625,1.375 1.09375,1.34375 4.875,2.46875 0.28125,-3.8125 z m -68,6.8125 -2.4375,1.09375 -0.5625,1.875 2.1875,2.46875 1.625,0 0.84375,-3 z m -209.03125,35.90625 -1.71875,3.25 0.59375,2.3125 1.125,0.6875 -0.28125,0.96875 -1.1875,0.3125 0.34375,3.4375 1.28125,1.28125 1.03125,-1.09375 -1.28125,-3.34375 0.75,-2.65625 1.875,-2.5 L 135,128.75 z m 183.6875,42.65625 -10.59375,10.09375 1.0625,2.40625 12.9375,4.8125 1.875,-3.21875 -1.0625,-5.3125 -4.25,0.53125 -2.375,-2.65625 3.96875,-4 z"
       id="AAM" />
    <path
       d="m 749.21875,140.65625 -2.4375,2.125 3.09375,7.09375 -1.09375,6.6875 -3.84375,1.59375 -2.1875,-0.1875 -0.90625,-0.1875 -7.59375,-0.8125 -5.5,5.625 -8.6875,-0.4375 -1.15625,-1.9375 -5.21875,0.1875 -2.5625,1.90625 -4.84375,-0.125 -2.6875,-4.40625 -7.75,-2.75 -2.625,3.65625 3.96875,2.9375 -5.8125,5.3125 -4.75,-1.25 -7,-3.25 -5.8125,7.71875 -0.78125,0.125 -2.625,-0.21875 -3.46875,8.71875 -4.78125,-0.25 -5.03125,11 4.28125,5.4375 -8.78125,12.15625 -4.53125,-0.75 -3.03125,3.78125 0.75,2.28125 3.53125,0.25 1.75,4.0625 3.53125,0.75 10.8125,13.9375 0,7.09375 5.28125,3.28125 5.78125,-1 7.28125,4.28125 8.8125,2.53125 4.25,-0.5 4.78125,-0.5 10.0625,-6.59375 3.25,0.5 1.25,2.96875 2.78125,0.84375 3.78125,5.5625 -2.53125,5.5625 1.53125,3.8125 4.25,1.53125 0.75,4.5625 5.03125,0.5 0.75,-2.28125 7.3125,-3.8125 4.5,0.25 5.28125,5.84375 3.53125,-1.53125 2.25,0.25 1,2.78125 1.78125,0.25 2.5,-3.53125 10.0625,-3.8125 9.03125,-10.875 3.03125,-10.375 -0.25,-6.84375 -3.78125,-0.78125 2.28125,-2.53125 -0.5,-4.03125 -9.5625,-9.625 0,-4.8125 2.75,-3.53125 2.78125,-1.28125 0.25,-2.78125 -7.0625,0 -1.25,3.8125 -3.28125,-0.78125 -4,-4.28125 2.5,-6.59375 3.53125,-3.8125 3.25,0.25 -0.5,5.84375 1.78125,1.5 4.25,-4.28125 1.53125,-0.25 0.75,0.0625 1.84375,0.75 0.5625,6.4375 3.65625,0.21875 2.25,1 0.28125,1.25 -1.21875,0.9375 1.125,3.03125 2.96875,6.375 2.59375,-0.15625 3.03125,-3.375 0.1875,-2.625 -1.03125,-4.875 -6.75,-5.59375 -1.1875,-1.0625 0.125,-4.3125 3.15625,-3.8125 -1.59375,-2.90625 1.03125,-1.1875 0.59375,-3 -1.84375,-0.84375 -0.1875,-0.84375 0.21875,-3.46875 -2,-2.09375 -0.1875,-5.46875 3.875,-0.25 -0.25,-14.125 -2.71875,1.59375 -1,3.625 -4.5,0 -13.09375,-7.34375 -9.4375,-11.375 z m 73.3125,42.71875 -1.21875,0.0937 -2.59375,2.90625 0,2.40625 1.15625,1.34375 0.375,6.34375 -2.96875,3.65625 -1.71875,-1.03125 -1.34375,2.96875 -0.28125,2.8125 1.0625,1.625 -0.6875,1.25 -2.1875,-1.84375 -1.53125,0 -1.34375,0.78125 -1.0625,0.28125 -4.875,5.59375 0.875,1.34375 2.375,0.3125 4.5,-3.46875 3.15625,-0.59375 2.875,3.375 2.1875,-0.78125 0.875,-3.28125 4.09375,-0.0937 4.03125,-4.8125 -2.09375,-8 -0.96875,-4.25 2.09375,-1.71875 z m -10.5,29.78125 -2.78125,2.59375 -0.0937,3 0.6875,0.875 3.71875,-3.1875 -0.28125,-3.1875 z m -8.8125,3.25 -1.625,1.65625 0.6875,2.3125 1.40625,0.0937 0.96875,5 1.15625,1.25 2,-1.8125 0.875,-3.28125 -2.5,-3.5625 z m -15.75,31.90625 -3.5625,2.6875 -0.1875,5.21875 3.0625,3.5625 0.78125,-0.6875 z"
       id="EAS" />
    <path
       d="m 833.75,2.875 -3.34375,1.21875 -1.6875,2.5 2.125,2.8125 5.625,-2.46875 1.125,-1.25 L 836.6875,3.75 z m -78.5,4.375 -1.8125,1.375 -5.15625,1.125 -1.34375,0.34375 1.78125,3.375 6.96875,-0.78125 1.90625,-2.5 -0.4375,-2.125 z M 741,8.375 l -2.59375,1.71875 -6.28125,0.5625 0,2.84375 -6.59375,0.09375 0,4.625 L 733.25,24 l 2.03125,-1.46875 -0.4375,-4.09375 4.9375,-1.21875 -1.03125,-1.9375 -1.78125,-1.8125 2.78125,-0.65625 2.6875,2.25 1.9375,-0.78125 0.53125,-3.1875 z m 94.78125,7.34375 -18.875,3.28125 -2.75,1.53125 0,1.53125 4.03125,2.03125 -0.5,4.78125 -7.3125,-3.03125 -16.0625,6.34375 -2.75,-5.8125 -11.0625,0 -5.03125,5.3125 -17.84375,-4.0625 -16.34375,3.28125 -2,5.0625 2.5,0.78125 -0.25,3.78125 -15.8125,1.78125 1,5.0625 -14.59375,-2.53125 3.53125,-6.59375 -14.8125,-0.75 1.25,6.84375 -4.78125,2.28125 -4,-3.8125 -16.34375,2.8125 -6.28125,5.8125 -0.25,3.53125 -4.03125,0.25 -0.5,-4.0625 12.84375,-11.125 0,-7.59375 -8.3125,-2.28125 -10.8125,3.53125 -4.5,-4.5625 -2,0 -2.53125,5.0625 2.03125,2.28125 -14.34375,7.84375 -12.3125,9.375 -7.53125,10.375 0,4.3125 8.03125,3.28125 -4.03125,3.03125 -8.53125,-3.03125 -3.53125,3.03125 -5.25,-6.0625 -1.03125,2.28125 5.78125,18.21875 1.5,0.5 4.03125,-2 2,1.5 0,3.28125 -3.75,-1.5 -2.28125,1.75 1.53125,3.3125 -1.28125,8.59375 -7.78125,0.78125 -0.5,-2.8125 4.53125,-2.78125 1,-7.59375 -5.03125,-6.59375 -1.75,-11.375 -8.03125,-1.28125 -0.75,4.0625 1.5,2.03125 -3.28125,2.78125 1.28125,7.59375 4.75,2.03125 1.03125,5.5625 -4.78125,-3.03125 -12.3125,-2.28125 -1.53125,4.0625 -9.78125,3.53125 -1.53125,-2.53125 -12.8125,7.09375 -0.25,4.8125 -5.03125,0.75 1.53125,-3.53125 0,-3.53125 -5.03125,-1.78125 -3.28125,1.28125 2.75,5.3125 2.03125,3.53125 0,2.78125 -3.78125,-0.75 -0.75,-0.75 -3.78125,4.03125 2.03125,3.5625 -8.5625,-0.25 2.78125,3.53125 -0.75,1.53125 -4.53125,0 -3.28125,-2.28125 -0.75,-6.34375 -5.28125,-2.03125 0,-2.53125 11.0625,2.28125 6.03125,0.53125 2.53125,-3.8125 -2.28125,-4.03125 -16.0625,-6.34375 -5.5625,1.375 -1.90625,1.625 0.59375,3.75 2.375,0.40625 -0.5625,5.90625 7.28125,17.09375 -5.25,8.34375 -0.375,1.875 2.6875,1.90625 -2.40625,1.5625 -1.625,0.0312 0.3125,7.375 2.21875,3.125 0.0312,3.03125 2.8125,0.25 4.34375,1.65625 4.5625,6.3125 0.0625,1.65625 -1.5,2.5625 3.4375,-0.21875 3.3125,0.96875 4.5,6.375 11.09375,1 -0.5,7.59375 -3.8125,3.28125 0.8125,1.25 -3.78125,4.0625 -1,3.8125 2.25,3.28125 7.28125,2.53125 0.59375,0.59375 3.25,4.28125 4.09375,1.875 2.5,0 0.40625,0.625 -0.21875,2.5 4.21875,3.78125 3.40625,0.59375 1.40625,-1.65625 0.875,-0.65625 1.28125,-0.25 2.75,2.65625 1.1875,-4.9375 2.9375,0.46875 -0.125,-1.4375 -5.8125,-1.71875 1,-2.5 -0.625,-0.6875 -4,-3.78125 0,-4.8125 -2.53125,-0.78125 0.5,-4.03125 4.03125,-4.8125 4.78125,-2 4.59375,-0.15625 0.3125,7 -2.6875,0 -2.03125,3.34375 2.65625,4.4375 3.96875,2.21875 0.34375,2.5625 1.46875,-0.46875 1.34375,-1.59375 2.0625,0.53125 5.53125,-0.5 -4.5,3.34375 -0.625,2.625 -4.125,0 0,3.5625 4.4375,2.9375 -1.375,4.03125 0,1.875 1.84375,0.28125 2.46875,-3.25 5.53125,-1.21875 11.84375,4.46875 0.15625,3.25 6.625,0.625 7.375,-7.75 0.90625,0.0312 3.28125,0.15625 0.34375,0.0625 1.59375,0 2.625,-0.90625 -0.0625,-1.625 2.96875,-2.4375 1.96875,1.90625 -0.125,3.1875 2.6875,0.1875 0.1875,-2.53125 2.6875,-0.375 1.53125,0.125 0.71875,1.4375 0.71875,-0.0625 0.53125,-1.125 -1.78125,-3.78125 -3.59375,-0.375 -0.59375,-1.90625 -0.25,-1.0625 3.46875,-4.40625 4.375,0.78125 4.53125,-6.375 0.4375,-0.8125 0.6875,-0.78125 2.5,-3.34375 -4.25,-5.25 5.6875,-12.40625 4.5625,0.3125 3.21875,-8.5625 3.5625,0.0937 6.125,-8.15625 8.03125,3.5625 4.28125,0.75 4.25,-3.78125 -3.75,-2.53125 3.25,-5.0625 9.3125,3.03125 2,4.0625 4.03125,0.25 2.5,-1.78125 6.78125,-0.25 0.75,1.78125 7.8125,0.5 5.28125,-5.5625 10.8125,1.25 3.25,-1.25 1,-6.09375 -3.25,-7.34375 3.25,-2.78125 10.3125,0 9.78125,11.65625 12.5625,7.09375 3.78125,0 0.5,-3.0625 4.53125,-2.78125 0.5,16.46875 -4.03125,0.25 0,4.03125 2.25,2.8125 -0.40625,3.625 1.65625,0.6875 1.03125,-2.53125 1.5,0.5 1,1 4.53125,-1 4.5,-13.15625 0.5,-16.46875 -5.78125,-13.1875 -7.28125,-8.84375 -3.53125,0.5 0,2.78125 -8.53125,-3.28125 3.28125,-7.09375 2.75,-18.71875 11.5625,-3.5625 5.53125,-3.53125 6.03125,0 -1.5,2.03125 1.5,2.53125 5.28125,-5.5625 3,0.25 -0.5,-3.3125 -4.78125,-1 3.2813,-11.9061 4.3125,-4.0625 1.75,6.0625 3.53125,1.03125 3.53125,-5.59375 -2.03125,-3.78125 0.75,-3.28125 5.28125,0 -1.25,2.5 0.5,9.125 -7.53125,18.75 0.75,4.0625 -0.25,6.8125 14.0625,20.53125 2.75,0.75 0.25,-16.71875 2.78125,-2.53125 -3.03125,-6.5625 2.5,-2.78125 -5.53125,-7.34375 -3,0.25 -1,-12.15625 7.78125,-2.03125 0.5,-3.5625 4.03125,-1 2.25,2.03125 2.75,-11.125 4.78125,-8.125 3.75,-2.03125 3.28125,0.25 0,-3.78125 -5.28125,-1.03125 -7.28125,-6.0625 3.53125,-4.0625 -3.03125,-6.84375 2.5,-2.53125 3.03125,4.0625 7.53125,2.78125 8.28125,0.78125 1.03125,-3.5625 -4.28125,-4.28125 4.78125,-6.59375 -10.8125,-3.78125 -2.78125,5.5625 -3.5,-4.5625 z M 630.125,16.75 l -0.5,1.5625 -2.75,1.5625 -2.09375,0.6875 -0.34375,2.09375 L 629.28125,23 634.9375,18.15625 632.71875,16.75 z m 10.15625,1.90625 -1.21875,2.625 -2.40625,-0.1875 -3.78125,2.78125 -1.03125,3.46875 2.40625,0 1.375,-2.25 3.28125,2.4375 L 642,26.125 l 2.25,-1.90625 -0.875,-2.9375 -1.21875,-2.09375 z m 5,1.9375 1.21875,4.84375 1.875,4.5 2.0625,-3.625 3.96875,-0.875 0,-2.59375 -2.5625,-1.90625 z M 743,22.40625 741,24.5625 740.09375,27.5 744.8125,27.0625 748.40625,25.25 746.5,23.3125 z m 138.28125,15.96875 -2.34375,1.5625 -0.5625,1.9375 1.09375,1.28125 2.5,-0.84375 2.5,0.84375 1.40625,0.40625 -0.15625,-4.625 z M 584.5,51.96875 583.96875,54.40625 580,57.875 l -8.4375,1.90625 -6.875,11.46875 -1.21875,3.28125 6.90625,1.75 1,-4.15625 2.09375,-6.4375 5.34375,-2.78125 4.46875,-3.46875 3.28125,-1.375 1.71875,0 0,-4.6875 z m -22.21875,25.34375 0.15625,4.5 -3.09375,0.875 0,1.90625 2.0625,2.78125 5,0.1875 2.25,2.59375 2.40625,0 1.375,-2.78125 -3.96875,-4.15625 -1.53125,-5.375 z m 236.34375,45.28125 -0.0625,6.15625 7.71875,11.96875 2.78125,10.40625 4.875,9.25 1.90625,0.65625 1.625,-1.34375 0.78125,-2.21875 -7,-7.625 0.1875,-3.9375 1.53125,-0.6875 0.40625,-2.3125 -13.6875,-19.34375 z m 41.40625,9.4375 -1.21875,1.53125 0.0937,2.40625 1.15625,-0.0937 1.90625,-3.375 z m 0.0312,5.78125 -2.3125,0.0937 0,4.25 1.34375,0.46875 0.96875,-1.53125 z m -334.9375,13.75 -2.71875,3.25 0,1.5 0.90625,0.34375 1.75,0.0625 2.90625,-2.375 0.40625,-0.8125 -1.75,-1.8125 z M 836.6875,154 l -2.28125,0.96875 -0.96875,2.59375 0.0937,1.71875 1.625,-1.0625 1.53125,-3.0625 z m -5.8125,6.4375 -2.6875,3.78125 0.1875,1.8125 1.34375,-0.5625 L 832.875,161.5 z m -14.4375,3 -1.53125,1.34375 0.75,2.90625 1.34375,1.34375 -0.0937,4.4375 -1.71875,0.65625 -1.34375,3 3.9375,5.375 2.5625,-0.875 0.5,-1.34375 -2.78125,-2.5 1.71875,-2.21875 1.8125,0.3125 1.4375,1.53125 0.0937,-3.1875 3.9375,-3.1875 2.1875,-0.5625 -1.8125,-3.09375 -0.875,-1.34375 -1.4375,0.96875 -1.21875,1.53125 -2.6875,-0.59375 -2.78125,-1.8125 z"
       id="RUS" />
    <path
       d="m 651.375,217.5 -1.25,1.5 -0.90625,0.0937 -5.6875,3.59375 1.84375,3.125 -2.09375,2.25 -2.59375,9.5625 -6.4375,4.125 -0.875,4.5 -10.25,3.59375 2.59375,3.84375 -0.25,2 -3.4375,1.375 -0.25,3.25 3.9375,0 1.375,-1.125 7.53125,0 6.8125,5.96875 0.875,0.21875 4.3125,-0.1875 0.125,1.875 -3.09375,1.59375 1.96875,3.75 3.84375,1.25 2.34375,-1.75 1.125,-3.09375 1.34375,-0.625 1.625,1.625 -0.5,4 -1.09375,1.84375 0.25,3.25 16.40625,34.09375 4.59375,-2.21875 2.71875,-9.84375 -0.125,-12.09375 15.59375,-16.8125 0,-4 3.1875,-1.25 0.8125,0.1875 0.625,1.375 4,0.0625 2.25,-2.1875 1.65625,1 0.3125,3.0625 1.3125,-0.8125 0.0937,-3.90625 0.34375,-0.90625 2.21875,-3.96875 1.125,-10.46875 3.6875,-2.625 L 715.5,244 714.03125,241.125 711.6875,241 l -9.21875,6.09375 -0.8125,0.25 -9.46875,0.96875 -8.65625,-2.375 -7.34375,-4.375 -5,1 -0.78125,0.0625 -5.78125,-3.59375 -0.0625,-7.375 -3.9375,-4.53125 -0.53125,-0.6875 -5.6875,-8.09375 z m 30.65625,89.84375 -1.5,0.71875 0.25,2.71875 0.25,1.96875 -1.46875,0.25 0.75,4.4375 2.21875,1.25 3.40625,-1.96875 -0.96875,-4.6875 0.25,-1.75 z"
       id="SAS" />
  </g>
</svg>
